<svg xmlns="http://www.w3.org/2000/svg" viewBox="0 0 171.49 91.66"><defs><style>.a{fill:#fff;}</style></defs><title>Datový zdroj 3</title><path class="a" d="M171.49,16c-2.89,3.55-2.86,8.08-4,12.19-1,3.38-1.63,6.86-3.8,9.7-7.49,9.83-6.11,20.14-1.93,30.71.83,2.09,4.36,4.92,1.35,6.3-2.68,1.24-6.08,3.5-9.84,1.6-8-4.07-16.15-7.92-24.26-11.8-1.59-.77-3-2.1-5.34-1.8A134,134,0,0,0,129,85.62c.61,1.9,2.94,4.9-.55,5.89-3.34.94-3.79-2.63-4.36-4.88-2.37-9.35-4.51-18.77-6.77-28.15a24.1,24.1,0,0,0-1.24-3c-3.07,4.73-4,9.83-6.5,14.16C105.86,76,101,81.6,98.72,88.73c-.63,2-2.1,3.15-4.16,2.66-2.42-.57-2.13-2.69-1.89-4.51,1.48-11.23,2.86-22.47,4.59-33.66.56-3.67-.41-4.22-3.51-2.9a17.72,17.72,0,0,1-3.3,1.16c-2.64.54-5.46,2.32-7.8-.62s-.73-5.72.71-8.33C85.2,39.21,87.26,36,90,31.42c-4,2.25-6.85,3.75-9.58,5.43-2.2,1.36-1.37,3.58-1.09,5.47,2.1,14,4.28,28,6.41,42C86,86,87.3,88.34,84.63,88.85c-2.89.55-2.83-2.12-3.07-4.06-1.67-13.38-3.6-26.72-6-40-.64-3.65-1.65-4-4.74-2.24C63.22,46.8,63,46.7,65.17,55.13c2.08,8.23,4.49,16.37,6.63,24.59.46,1.75,1.92,4-.51,5.34-2.26,1.26-4.17-.16-5.85-1.6-6.19-5.29-12.15-10.85-19.51-15.4-1.12,3.61-.09,7-.4,10.36-.14,1.41.56,3.2-1.38,3.87-2.21.76-3.94-.27-5.2-2-3.67-5.08-5.7-10.93-7.3-16.87-2-7.53-3.68-15.16-5.92-22.79-3.11,8.95-4.52,18.2-5.37,27.57-.45,5-.71,10-1.31,14.91-.27,2.2-.3,5.15-3.36,5.43s-3.49-2.45-4.4-4.61c-4.68-11.05-5.09-23-7.6-34.56A173.08,173.08,0,0,1,.44,22.61c-.11-1.91-1.66-4.95,1.8-5.13s3.42,2.74,3.49,5.39a241.47,241.47,0,0,0,7.71,52.25,13.34,13.34,0,0,0,1.28,2.06c1-8,2-15,2.81-22,.92-7.62,2-15.19,5-22.35.61-1.48.62-3.65,2.8-3.6,2.51.07,3.83,1.93,4.31,4.2q2,9.78,3.85,19.6c1.28,6.84,2.71,13.6,7,20.92.39-8,.85-14.54,1-21.14.31-11.48,3.39-22.35,7-33.11a13.27,13.27,0,0,1,1.34-3.22c1.21-1.8,1.5-4.86,4.67-4.39,2.92.43,3.33,3.21,3.72,5.35,1.27,7,2.25,14.14,3.2,21.24.43,3.17,1.22,4.51,4.65,2.52,9.73-5.66,8.22-2.2,7-13.45-.85-7.95-1.54-15.92-2.27-23.88-.12-1.32-.23-2.68.7-3.83h3a18.89,18.89,0,0,1,1.65,7.22c.35,7.48,1,15,1.1,22.44.08,4.37,1.58,4.39,4.6,2.28,4.36-3.06,8.79-6,13.16-9,1.22-.86,2.46-2.55,3.81-2.09,4.41,1.49,3.58-1.54,3.72-3.87.13-2,0-4.38,2.59-4.74s3.22,1.9,4,3.73A111.89,111.89,0,0,1,117,38c.3,1.37.09,3.48,1.76,3.83s2.31-1.62,3.22-2.73c8.26-10,16.46-20.09,24.73-30.1,1.21-1.46,2.67-4.1,4.69-2.59,2.56,1.91-.31,3.81-1.36,5.38-2.85,4.28-7,7.53-9.5,12.12-7.85,8-13.16,17.89-19.69,26.88-1.6,2.2,0,3.94,1.78,5,11.42,6.63,22.88,13.19,35.88,18-1.05-4-2.16-7.27-2.78-10.65-1.28-7.07-1.1-14.87-10.11-17.44-.42-.12-.76-.64-1.07-1-4.91-6.23-5.31-13.38-4.14-20.82,2.75-.24,3.34,1.33,3.26,3.69a24.35,24.35,0,0,0,3,12.93c1.39,2.47,3.23,4.49,6.25,4.06,3.22-.45,3.21-3.38,3.54-5.82A141,141,0,0,1,162,12.94c.85-2.55.52-6.36,3.65-7.13,3.55-.86,3.78,3.52,5.85,5.19ZM67.69,80.68c-1.93-7-3.91-14-5.73-21-3.08-11.89-3-11.9-13.31-5.21-5.07,3.31-5.6,7.72-1,11.73,5,4.38,10.2,8.48,15.4,12.61C64.2,79.79,65.33,81.24,67.69,80.68Zm37.1-33.14c-2.44-.52-4.61-.43-5.12,3.16-1.17,8.23-2.56,16.43-3.83,24.64-.15,1-.51,2.13.59,2.68s1.81-.62,2.34-1.33c4.83-6.54,10-12.84,12.17-21C112.77,48.7,112.3,48,104.79,47.54ZM105.9,18.2l-1.42.15c-1,6.54-1.72,13.11-2.93,19.6-.86,4.62-.37,7.3,5.33,6.37,2.7-.43,5.27,1.23,8.32,2.11C112.69,36.39,111.88,26.4,105.9,18.2ZM54.16,21.86c-3.65,6.94-5.63,14.2-7.12,21.6-.46,2.25-1.94,5.26-.34,6.59,1.78,1.48,4.1-1.12,6-2.11,2.26-1.14,5.76-1.3,4.91-5.56C56.32,35.57,55.31,28.7,54.16,21.86ZM85.4,48.29C90,46.92,93.24,45.89,96.55,45a2.71,2.71,0,0,0,2.28-2.29L101.38,26C95.15,32.52,89.36,39,85.4,48.29Zm75.26-13.62c4.52-6.46,5.74-13.85,5.91-21.53C163.72,20.06,160.3,26.81,160.66,34.67Z"/></svg>